<mxfile host="app.diagrams.net" modified="2021-01-12T02:26:53.119Z" agent="5.0 (Macintosh; Intel Mac OS X 10_15_2) AppleWebKit/537.36 (KHTML, like Gecko) Chrome/87.0.4280.88 Safari/537.36" etag="HfR_aZ1uuqJOqPSkqywb" version="14.1.9" type="github">
  <diagram id="bFgfZXBy9cXYAgFmSrWO" name="Page-1">
    <mxGraphModel dx="1186" dy="739" grid="1" gridSize="10" guides="1" tooltips="1" connect="1" arrows="1" fold="1" page="1" pageScale="1" pageWidth="827" pageHeight="1169" math="0" shadow="0">
      <root>
        <mxCell id="0" />
        <mxCell id="1" parent="0" />
        <mxCell id="EtPJ6qZoGEF21ooRTRWL-12" value="" style="edgeStyle=orthogonalEdgeStyle;rounded=0;orthogonalLoop=1;jettySize=auto;html=1;" edge="1" parent="1" source="EtPJ6qZoGEF21ooRTRWL-1" target="EtPJ6qZoGEF21ooRTRWL-4">
          <mxGeometry relative="1" as="geometry" />
        </mxCell>
        <mxCell id="EtPJ6qZoGEF21ooRTRWL-1" value="CGI" style="rounded=0;whiteSpace=wrap;html=1;fillColor=#fff2cc;strokeColor=#d6b656;" vertex="1" parent="1">
          <mxGeometry x="300" y="220" width="120" height="60" as="geometry" />
        </mxCell>
        <mxCell id="EtPJ6qZoGEF21ooRTRWL-13" value="" style="edgeStyle=orthogonalEdgeStyle;rounded=0;orthogonalLoop=1;jettySize=auto;html=1;" edge="1" parent="1" source="EtPJ6qZoGEF21ooRTRWL-2" target="EtPJ6qZoGEF21ooRTRWL-3">
          <mxGeometry relative="1" as="geometry" />
        </mxCell>
        <mxCell id="EtPJ6qZoGEF21ooRTRWL-2" value="管理端web" style="rounded=0;whiteSpace=wrap;html=1;fillColor=#f8cecc;strokeColor=#b85450;" vertex="1" parent="1">
          <mxGeometry x="520" y="220" width="120" height="60" as="geometry" />
        </mxCell>
        <mxCell id="EtPJ6qZoGEF21ooRTRWL-3" value="mgr" style="rounded=0;whiteSpace=wrap;html=1;fillColor=#dae8fc;strokeColor=#6c8ebf;" vertex="1" parent="1">
          <mxGeometry x="520" y="320" width="120" height="60" as="geometry" />
        </mxCell>
        <mxCell id="EtPJ6qZoGEF21ooRTRWL-10" value="" style="edgeStyle=orthogonalEdgeStyle;rounded=0;orthogonalLoop=1;jettySize=auto;html=1;" edge="1" parent="1" source="EtPJ6qZoGEF21ooRTRWL-4" target="EtPJ6qZoGEF21ooRTRWL-5">
          <mxGeometry relative="1" as="geometry" />
        </mxCell>
        <mxCell id="EtPJ6qZoGEF21ooRTRWL-4" value="awardsvr" style="rounded=0;whiteSpace=wrap;html=1;fillColor=#dae8fc;strokeColor=#6c8ebf;" vertex="1" parent="1">
          <mxGeometry x="300" y="320" width="120" height="60" as="geometry" />
        </mxCell>
        <mxCell id="EtPJ6qZoGEF21ooRTRWL-9" value="" style="edgeStyle=orthogonalEdgeStyle;rounded=0;orthogonalLoop=1;jettySize=auto;html=1;" edge="1" parent="1" source="EtPJ6qZoGEF21ooRTRWL-5" target="EtPJ6qZoGEF21ooRTRWL-6">
          <mxGeometry relative="1" as="geometry" />
        </mxCell>
        <mxCell id="EtPJ6qZoGEF21ooRTRWL-14" value="" style="edgeStyle=orthogonalEdgeStyle;rounded=0;orthogonalLoop=1;jettySize=auto;html=1;" edge="1" parent="1" source="EtPJ6qZoGEF21ooRTRWL-5" target="EtPJ6qZoGEF21ooRTRWL-8">
          <mxGeometry relative="1" as="geometry" />
        </mxCell>
        <mxCell id="EtPJ6qZoGEF21ooRTRWL-5" value="couponoasvr" style="rounded=0;whiteSpace=wrap;html=1;" vertex="1" parent="1">
          <mxGeometry x="300" y="420" width="120" height="60" as="geometry" />
        </mxCell>
        <mxCell id="EtPJ6qZoGEF21ooRTRWL-6" value="couponkvsvr" style="rounded=0;whiteSpace=wrap;html=1;" vertex="1" parent="1">
          <mxGeometry x="300" y="510" width="120" height="60" as="geometry" />
        </mxCell>
        <mxCell id="EtPJ6qZoGEF21ooRTRWL-8" value="外部券系统" style="rounded=0;whiteSpace=wrap;html=1;fillColor=#e1d5e7;strokeColor=#9673a6;" vertex="1" parent="1">
          <mxGeometry x="120" y="370" width="100" height="160" as="geometry" />
        </mxCell>
        <mxCell id="EtPJ6qZoGEF21ooRTRWL-11" value="" style="endArrow=classic;html=1;exitX=0.5;exitY=1;exitDx=0;exitDy=0;entryX=1;entryY=0.5;entryDx=0;entryDy=0;" edge="1" parent="1" source="EtPJ6qZoGEF21ooRTRWL-3" target="EtPJ6qZoGEF21ooRTRWL-5">
          <mxGeometry width="50" height="50" relative="1" as="geometry">
            <mxPoint x="380" y="400" as="sourcePoint" />
            <mxPoint x="440" y="350" as="targetPoint" />
            <Array as="points">
              <mxPoint x="580" y="450" />
            </Array>
          </mxGeometry>
        </mxCell>
        <mxCell id="EtPJ6qZoGEF21ooRTRWL-15" value="券管理" style="text;html=1;strokeColor=none;fillColor=none;align=center;verticalAlign=middle;whiteSpace=wrap;rounded=0;" vertex="1" parent="1">
          <mxGeometry x="500" y="420" width="40" height="20" as="geometry" />
        </mxCell>
        <mxCell id="EtPJ6qZoGEF21ooRTRWL-16" value="发券，查用户券" style="text;html=1;strokeColor=none;fillColor=none;align=center;verticalAlign=middle;whiteSpace=wrap;rounded=0;" vertex="1" parent="1">
          <mxGeometry x="359" y="390" width="110" height="20" as="geometry" />
        </mxCell>
      </root>
    </mxGraphModel>
  </diagram>
</mxfile>
